<svg width="20" height="20" viewBox="0 0 27 26" fill="none" xmlns="http://www.w3.org/2000/svg">
<path d="M25.4381 7.43875L23.1349 9.71394C22.9 9.9459 22.529 9.93747 22.305 9.69508L17.0138 3.97054C16.7897 3.72815 16.7984 3.34463 17.0333 3.11267L19.3365 0.837479C20.2708 -0.0854297 21.7548 -0.051701 22.6511 0.912814L25.516 4.01232C26.4123 4.97683 26.3774 6.5109 25.4381 7.43875ZM15.0547 5.06707L1.93457 18.0273L0.760328 24.135C0.599953 24.9594 1.28173 25.6918 2.08552 25.5687L8.04105 24.6286L21.1612 11.6684C21.396 11.4365 21.4048 11.053 21.1807 10.8106L15.8895 5.08604C15.6606 4.84354 15.2896 4.83511 15.0547 5.06707ZM6.96398 17.0056C6.7018 16.7219 6.7119 16.2779 6.98669 16.0064L14.6809 8.40599C14.9557 8.13455 15.3853 8.14431 15.6475 8.42796C15.9097 8.71161 15.8996 9.15568 15.6248 9.42712L7.93053 17.0275C7.65574 17.299 7.22616 17.2892 6.96398 17.0056ZM5.10528 21.2095L7.44843 21.2627L7.4068 23.0945L4.24523 23.5932L2.76273 21.9893L3.38832 18.747L5.16033 18.7872L5.10528 21.2095Z" fill="#1FCC30" fill-opacity="0.57"/>
</svg>
