<svg width="18" height="22" viewBox="0 0 22 26" fill="none" xmlns="http://www.w3.org/2000/svg">
<path d="M1.57143 23.5625C1.57143 24.209 1.81977 24.829 2.26182 25.2861C2.70387 25.7432 3.30342 26 3.92857 26H18.0714C18.6966 26 19.2961 25.7432 19.7382 25.2861C20.1802 24.829 20.4286 24.209 20.4286 23.5625V6.50001H1.57143V23.5625ZM14.9286 10.5625C14.9286 10.347 15.0114 10.1404 15.1587 9.98798C15.3061 9.83561 15.5059 9.75 15.7143 9.75C15.9227 9.75 16.1225 9.83561 16.2699 9.98798C16.4172 10.1404 16.5 10.347 16.5 10.5625V21.9375C16.5 22.153 16.4172 22.3597 16.2699 22.512C16.1225 22.6644 15.9227 22.75 15.7143 22.75C15.5059 22.75 15.3061 22.6644 15.1587 22.512C15.0114 22.3597 14.9286 22.153 14.9286 21.9375V10.5625ZM10.2143 10.5625C10.2143 10.347 10.2971 10.1404 10.4444 9.98798C10.5918 9.83561 10.7916 9.75 11 9.75C11.2084 9.75 11.4082 9.83561 11.5556 9.98798C11.7029 10.1404 11.7857 10.347 11.7857 10.5625V21.9375C11.7857 22.153 11.7029 22.3597 11.5556 22.512C11.4082 22.6644 11.2084 22.75 11 22.75C10.7916 22.75 10.5918 22.6644 10.4444 22.512C10.2971 22.3597 10.2143 22.153 10.2143 21.9375V10.5625ZM5.5 10.5625C5.5 10.347 5.58278 10.1404 5.73013 9.98798C5.87748 9.83561 6.07733 9.75 6.28571 9.75C6.4941 9.75 6.69395 9.83561 6.8413 9.98798C6.98865 10.1404 7.07143 10.347 7.07143 10.5625V21.9375C7.07143 22.153 6.98865 22.3597 6.8413 22.512C6.69395 22.6644 6.4941 22.75 6.28571 22.75C6.07733 22.75 5.87748 22.6644 5.73013 22.512C5.58278 22.3597 5.5 22.153 5.5 21.9375V10.5625ZM21.2143 1.62501H15.3214L14.8598 0.675399C14.762 0.472383 14.6114 0.30161 14.4249 0.182292C14.2384 0.0629747 14.0233 -0.000153764 13.804 8.90333e-06H8.19107C7.97224 -0.000861006 7.7576 0.0620321 7.57173 0.181483C7.38587 0.300933 7.23631 0.472109 7.14018 0.675399L6.67857 1.62501H0.785714C0.57733 1.62501 0.37748 1.71061 0.23013 1.86298C0.0827804 2.01536 0 2.22202 0 2.43751L0 4.06251C0 4.278 0.0827804 4.48466 0.23013 4.63703C0.37748 4.7894 0.57733 4.87501 0.785714 4.87501H21.2143C21.4227 4.87501 21.6225 4.7894 21.7699 4.63703C21.9172 4.48466 22 4.278 22 4.06251V2.43751C22 2.22202 21.9172 2.01536 21.7699 1.86298C21.6225 1.71061 21.4227 1.62501 21.2143 1.62501V1.62501Z" fill="#FF0000" fill-opacity="0.61"/>
</svg>
